<?xml version="1.0" encoding="UTF-8" standalone="no"?>
<svg
   xmlns:dc="http://purl.org/dc/elements/1.1/"
   xmlns:cc="http://creativecommons.org/ns#"
   xmlns:rdf="http://www.w3.org/1999/02/22-rdf-syntax-ns#"
   xmlns:svg="http://www.w3.org/2000/svg"
   xmlns="http://www.w3.org/2000/svg"
   version="1.1"
   id="svg3513"
   viewBox="0 0 352.425 212.4375"
   height="59.954582mm"
   width="99.462166mm">
  <defs
     id="defs3515">
    <clipPath
       id="clipPath3449"
       clipPathUnits="userSpaceOnUse">
      <path
         id="path3451"
         d="M 0,800 1280,800 1280,0 0,0 0,800 Z" />
    </clipPath>
  </defs>
  <metadata
     id="metadata3518">
    <rdf:RDF>
      <cc:Work
         rdf:about="">
        <dc:format>image/svg+xml</dc:format>
        <dc:type
           rdf:resource="http://purl.org/dc/dcmitype/StillImage" />
        <dc:title></dc:title>
      </cc:Work>
    </rdf:RDF>
  </metadata>
  <g
     transform="translate(-10.96202,-14.71488)"
     id="layer1">
    <g
       id="g3445"
       style="display:inline"
       transform="matrix(1.25,0,0,-1.25,-467.67998,639.71488)">
      <g
         clip-path="url(#clipPath3449)"
         id="g3447">
        <g
           transform="translate(664.8536,350.435)"
           id="g3453">
          <path
             id="path3455"
             style="fill:#e84949;fill-opacity:1;fill-rule:nonzero;stroke:none"
             d="M 0,0 -281.206,-20.385 -281.94,129.18 -0.734,149.565 0,0 Z" />
        </g>
        <g
           transform="translate(418.5201,415.3736)"
           id="g3457">
          <path
             id="path3459"
             style="fill:#ffffff;fill-opacity:1;fill-rule:nonzero;stroke:none"
             d="m 0,0 0,-8.563 c 0.705,-5.921 4.404,-9.392 11.1,-10.414 8.458,0.669 13.215,5.056 14.273,13.162 C 25.02,4.052 20.263,9.163 11.1,9.515 4.404,8.458 0.705,5.286 0,0 m -14.801,-44.586 0,64.673 L 0,21.673 0,17.444 c 3.946,2.819 7.824,4.229 11.629,4.229 8.106,0 14.537,-2.643 19.294,-7.929 4.758,-5.286 7.137,-11.453 7.137,-18.501 0,-7.049 -2.379,-13.215 -7.137,-18.502 -4.757,-5.285 -11.188,-7.929 -19.294,-7.929 -5.286,0.352 -9.163,1.78 -11.629,4.282 l 0,-17.734 -14.801,0.054 z" />
        </g>
        <g
           transform="translate(487.3551,422.4572)"
           id="g3461">
          <path
             id="path3463"
             style="fill:#ffffff;fill-opacity:1;fill-rule:nonzero;stroke:none"
             d="m 0,0 c -2.114,1.586 -4.582,2.378 -7.401,2.378 -2.819,0 -5.286,-0.792 -7.4,-2.378 -2.114,-1.586 -3.172,-3.789 -3.172,-6.608 l 21.144,0 C 3.171,-3.789 2.114,-1.586 0,0 m -33.831,-11.894 c 0,7.752 2.467,14.096 7.4,19.03 4.934,4.933 11.277,7.4 19.03,7.4 7.753,0 13.92,-2.467 18.501,-7.4 4.581,-4.934 6.872,-11.278 6.872,-19.03 l 0,-5.286 -36.473,0 c 0.352,-2.819 1.586,-5.022 3.7,-6.607 2.114,-1.586 4.581,-2.379 7.4,-2.379 4.934,0 9.338,1.409 13.216,4.229 l 8.458,-8.458 c -3.878,-5.286 -11.102,-7.929 -21.674,-7.929 -7.753,0 -14.096,2.466 -19.03,7.401 -4.933,4.932 -7.4,11.276 -7.4,19.029" />
        </g>
        <g
           transform="translate(530.3666,396.291)"
           id="g3465">
          <path
             id="path3467"
             style="fill:#ffffff;fill-opacity:1;fill-rule:nonzero;stroke:none"
             d="M 0,0 C 9.162,0.352 13.92,5.462 14.272,15.329 13.215,23.434 8.458,27.822 0,28.492 -6.696,27.469 -10.397,23.999 -11.101,18.079 l 0,-8.565 C -10.397,4.229 -6.696,1.057 0,0 m -11.101,58.278 0,-21.857 c 2.466,2.502 6.343,3.929 11.629,4.281 8.105,0 14.537,-2.642 19.295,-7.929 4.757,-5.285 7.135,-11.453 7.135,-18.5 0,-7.049 -2.378,-13.216 -7.135,-18.502 -4.758,-5.286 -11.19,-7.929 -19.295,-7.929 -3.806,0 -7.682,1.409 -11.629,4.229 l 0,-4.229 -14.801,0 0,68.997 14.801,1.439 z" />
        </g>
        <g
           transform="translate(582.4982,396.291)"
           id="g3469">
          <path
             id="path3471"
             style="fill:#ffffff;fill-opacity:1;fill-rule:nonzero;stroke:none"
             d="M 0,0 C 9.162,0.352 13.92,5.462 14.272,15.329 13.215,23.434 8.458,27.822 0,28.492 -6.696,27.469 -10.397,23.999 -11.101,18.079 l 0,-8.565 C -10.397,4.229 -6.696,1.057 0,0 m -11.101,58.278 0,-21.857 c 2.466,2.502 6.343,3.929 11.629,4.281 8.105,0 14.537,-2.642 19.295,-7.929 4.757,-5.285 7.135,-11.453 7.135,-18.5 0,-7.049 -2.378,-13.216 -7.135,-18.502 -4.758,-5.286 -11.19,-7.929 -19.295,-7.929 -3.806,0 -7.682,1.409 -11.629,4.229 l 0,-4.229 -14.801,0 0,68.997 14.801,1.439 z" />
        </g>
        <g
           transform="translate(609.2021,384.1329)"
           id="g3473">
          <path
             id="path3475"
             style="fill:#ffffff;fill-opacity:1;fill-rule:nonzero;stroke:none"
             d="M 0,0 0,69.05 14.802,70.436 14.802,0 0,0 Z" />
        </g>
        <g
           transform="translate(630.304,396.8463)"
           id="g3477">
          <path
             id="path3479"
             style="fill:#ffffff;fill-opacity:1;fill-rule:nonzero;stroke:none"
             d="m 0,0 c 1.41,1.427 3.312,2.14 5.709,2.14 2.538,0 4.511,-0.713 5.921,-2.14 1.409,-1.428 2.114,-3.198 2.114,-5.312 0,-2.115 -0.705,-3.877 -2.114,-5.287 -1.41,-1.41 -3.349,-2.114 -5.815,-2.114 -2.467,0 -4.405,0.704 -5.815,2.114 -1.41,1.41 -2.114,3.172 -2.114,5.287 0,2.114 0.704,3.884 2.114,5.312" />
        </g>
      </g>
    </g>
  </g>
</svg>
